# xmcd
#
# Track frame offsets:
#	150
#	13300
#	28189
#	41086
#	56350
#	73084
#	86977
#	103576
#	116206
#	130944
#	146168
#	161785
#
# Disc length: 2354 seconds
# Revision: 0
# Processed by: cddbd v1.5.2PL0 Copyright (c) Steve Scherf et al.
# Submitted via: dBpowerAMP V12.0
#
DISCID=b709300c
DTITLE=Olivia Newton-John - The Great Olivia Newton-John [Australian Edition • Disc 1]
DYEAR=1999
DGENRE=Country
TTITLE0=If Not For You
TTITLE1=Banks Of The Ohio
TTITLE2=Winterwood
TTITLE3=Take Me Home, Country Roads
TTITLE4=Amoureuse
TTITLE5=Let Me Be There
TTITLE6=I Honestly Love You
TTITLE7=Long Live Love
TTITLE8=I You Love Me (Let Me Know)
TTITLE9=What Is Life
TTITLE10=If We Try
TTITLE11=Music Makes My Day
EXTD=
EXTT0=
EXTT1=
EXTT2=
EXTT3=
EXTT4=
EXTT5=
EXTT6=
EXTT7=
EXTT8=
EXTT9=
EXTT10=
EXTT11=
PLAYORDER=
